<?xml version="1.0" encoding="UTF-8" standalone="no"?>
<!-- Created with Inkscape (http://www.inkscape.org/) -->

<svg
   width="256"
   height="256"
   viewBox="0 0 67.733332 67.733333"
   version="1.1"
   id="svg1"
   inkscape:version="1.3 (0e150ed6c4, 2023-07-21)"
   sodipodi:docname="blue-ball.svg"
   xmlns:inkscape="http://www.inkscape.org/namespaces/inkscape"
   xmlns:sodipodi="http://sodipodi.sourceforge.net/DTD/sodipodi-0.dtd"
   xmlns="http://www.w3.org/2000/svg"
   xmlns:svg="http://www.w3.org/2000/svg">
  <sodipodi:namedview
     id="namedview1"
     pagecolor="#505050"
     bordercolor="#eeeeee"
     borderopacity="1"
     inkscape:showpageshadow="0"
     inkscape:pageopacity="0"
     inkscape:pagecheckerboard="0"
     inkscape:deskcolor="#505050"
     inkscape:document-units="px"
     inkscape:zoom="2.5751464"
     inkscape:cx="137.27375"
     inkscape:cy="59.608261"
     inkscape:window-width="1366"
     inkscape:window-height="699"
     inkscape:window-x="0"
     inkscape:window-y="0"
     inkscape:window-maximized="1"
     inkscape:current-layer="layer1" />
  <defs
     id="defs1">
    <filter
       style="color-interpolation-filters:sRGB"
       inkscape:label="Feather"
       id="filter17"
       x="-0.073222079"
       y="-0.073464755"
       width="1.1464442"
       height="1.1469295">
      <feGaussianBlur
         stdDeviation="5"
         result="blur"
         id="feGaussianBlur15" />
      <feComposite
         in="SourceGraphic"
         in2="blur"
         operator="atop"
         result="composite1"
         id="feComposite15" />
      <feComposite
         in2="composite1"
         operator="in"
         result="composite2"
         id="feComposite16" />
      <feComposite
         in2="composite2"
         operator="in"
         result="composite3"
         id="feComposite17" />
    </filter>
  </defs>
  <g
     inkscape:label="Layer 1"
     inkscape:groupmode="layer"
     id="layer1">
    <ellipse
       style="fill:#ffffff;fill-opacity:1;fill-rule:evenodd;stroke:none;stroke-width:0.38137"
       id="path21"
       cx="33.866665"
       cy="33.866665"
       rx="29.540615"
       ry="29.528078" />
    <path
       id="path2"
       style="opacity:1;fill:#0012d4;fill-opacity:1;stroke:#000000;stroke-width:1.21081"
       d="M 33.866664,4.9315037 A 28.935278,28.935278 0 0 0 22.6723,7.2382104 c 1.102033,2.5243874 1.814335,4.1644636 3.313034,7.2330896 2.763661,5.658679 5.804276,11.187905 9.261895,16.449886 3.859104,-0.779659 7.735433,-1.477314 11.612594,-2.15968 -4.035217,-5.14296 -7.959951,-10.372557 -11.752931,-15.696954 -1.256638,-1.764009 -0.590033,-3.1823966 0.578065,-3.3091319 0.70086,-0.076084 1.582131,0.3126139 2.336778,1.3705489 2.877011,4.033278 5.830993,8.011221 8.848673,11.940061 0.182245,0.218952 0.386467,0.464524 0.561362,0.674972 2.12642,2.503424 4.314756,4.952415 6.51859,7.387354 2.686416,-1.20077 5.375839,-2.395885 8.087386,-3.538017 A 28.935278,28.935278 0 0 0 33.866664,4.9315037 Z M 21.080105,7.9644046 A 28.935278,28.935278 0 0 0 4.9315065,33.866667 28.935278,28.935278 0 0 0 5.5485564,39.466361 C 9.3663427,38.044878 13.214296,36.705915 17.106584,35.497292 18.205643,35.156 19.310801,34.834895 20.41739,34.51825 c -0.105419,-0.196147 -0.212463,-0.391367 -0.315766,-0.588661 -1.116413,-2.132075 -2.15203,-4.309636 -3.04572,-6.544748 -0.180922,-0.45249 0.0052,-0.724181 0.260634,-0.732328 0.198717,-0.0065 0.439462,0.14688 0.582521,0.497864 0.8871,2.176461 1.89291,4.30261 2.983345,6.384374 0.12932,0.246884 0.262873,0.491659 0.395405,0.736788 0.802652,-0.228502 1.605783,-0.455685 2.406946,-0.688899 3.221876,-0.854351 6.46857,-1.599834 9.728585,-2.282759 C 30.074991,26.15651 27.116012,20.771597 24.423212,15.26099 22.912832,12.1701 22.190595,10.507425 21.080105,7.9644046 Z M 62.416441,29.33178 c -2.422761,1.024463 -4.827977,2.090063 -7.230308,3.162116 0.679929,0.748147 1.360604,1.495606 2.041063,2.243208 0.591612,0.650015 0.54899,1.272202 0.212182,1.561568 0.92881,1.118511 1.862505,2.233395 2.801791,3.343114 0.502122,0.593227 1.014722,1.177309 1.520906,1.767058 A 28.935278,28.935278 0 0 0 62.80182,33.866667 28.935278,28.935278 0 0 0 62.416441,29.33178 Z m -14.350349,0.961216 c -0.08212,0.0247 -0.150197,0.05809 -0.244483,0.07468 -3.842423,0.674327 -7.684245,1.363557 -11.51069,2.126272 0.822241,1.208399 1.659015,2.407285 2.52947,3.583689 0.398574,0.502673 0.789003,1.011846 1.181192,1.519789 3.342995,-1.624032 6.703655,-3.211238 10.090581,-4.742044 -0.684756,-0.851983 -1.367572,-1.705372 -2.04607,-2.562334 z m -13.612448,2.579033 c -3.445362,0.711682 -6.876522,1.489787 -10.279927,2.390799 -0.679063,0.197549 -1.359681,0.390091 -2.039941,0.583638 1.372136,2.4702 2.83092,4.890867 4.29597,7.306609 0.449242,0.740753 -0.299248,1.194621 -0.748483,0.453875 -1.478359,-2.437762 -2.950756,-4.880171 -4.3344,-7.373432 -0.02534,-0.04686 -0.05091,-0.09354 -0.0763,-0.140345 -1.208168,0.344585 -2.415057,0.693517 -3.614876,1.065918 -3.951404,1.226435 -7.8567963,2.589231 -11.7312251,4.035895 A 28.935278,28.935278 0 0 0 33.866661,62.801834 28.935278,28.935278 0 0 0 60.43219,45.229215 c -0.966562,-1.116409 -1.935901,-2.230342 -2.889784,-3.357585 -2.127104,-2.51364 -4.225466,-5.051694 -6.298614,-7.610117 -3.397893,1.529421 -6.766786,3.121231 -10.119537,4.746506 0.491789,0.625497 0.988856,1.246865 1.506991,1.850605 2.680615,3.123557 5.667843,6.041146 9.118777,8.30959 0.543233,0.35709 1.242957,0.679922 1.851708,0.971797 1.562371,0.749084 0.981732,2.379378 -0.589197,1.648441 -0.715442,-0.332882 -1.433152,-0.648807 -2.098985,-1.083174 -3.619055,-2.361 -6.746595,-5.382285 -9.557623,-8.648201 -0.635569,-0.738417 -1.24247,-1.500292 -1.842245,-2.268274 -0.680228,0.333063 -1.36573,0.655022 -2.044397,0.991289 -1.552515,0.769291 -2.329997,-0.799003 -0.777442,-1.568247 0.57123,-0.28301 1.148527,-0.553468 1.720838,-0.834243 -0.31357,-0.404648 -0.625035,-0.811127 -0.943396,-1.211828 -1.042171,-1.406543 -2.041164,-2.842355 -3.015643,-4.293745 z m -4.09158,10.845192 c 0.03028,-0.0011 0.05928,-3.61e-4 0.08688,0.0018 0.47822,0.04096 0.541621,0.634668 -0.110823,0.898842 -1.804868,0.730796 -3.479006,1.748539 -5.131892,2.767821 -2.244258,1.42883 -4.43886,2.933099 -6.651685,4.40958 -0.720633,0.480851 -1.206272,-0.247036 -0.485621,-0.727873 2.221575,-1.482292 4.424984,-2.992855 6.678416,-4.426847 1.708462,-1.052709 3.439066,-2.103942 5.307873,-2.850803 0.113123,-0.04518 0.215949,-0.068 0.306854,-0.07243 z m 8.291761,4.908009 c 0.592059,-0.02729 0.720997,0.63696 0.0043,0.884363 -3.036895,1.048592 -6.074541,2.096927 -9.131025,3.087488 -1.601411,0.519003 -2.741224,0.898002 -4.303768,1.283673 -0.148755,0.03673 -0.302139,0.04979 -0.453323,0.07458 -0.854839,0.14069 -0.848908,-0.701977 0,-0.87489 0.732335,-0.149176 0.675585,-0.130809 1.8467,-0.481734 1.666035,-0.499216 4.152183,-1.329846 5.75395,-1.866186 2.764255,-0.925588 3.300631,-1.117307 6.001773,-2.049971 0.102355,-0.03533 0.196655,-0.05346 0.281237,-0.05734 z" />
  </g>
</svg>
